solid hybmesh_2d_profile
facet normal 0.000000e+00 0.000000e+00 -1.000000e+00
  outer loop
    vertex 2.359030e+00 4.598363e-01 0.000000e+00
    vertex 2.359030e+00 4.831637e-01 0.000000e+00
    vertex 2.359400e+00 4.715000e-01 0.000000e+00
  endloop
endfacet
facet normal 0.000000e+00 0.000000e+00 -1.000000e+00
  outer loop
    vertex 2.359030e+00 4.598363e-01 0.000000e+00
    vertex 2.357920e+00 4.947804e-01 0.000000e+00
    vertex 2.359030e+00 4.831637e-01 0.000000e+00
  endloop
endfacet
facet normal 0.000000e+00 0.000000e+00 -1.000000e+00
  outer loop
    vertex 2.359030e+00 4.598363e-01 0.000000e+00
    vertex 2.356077e+00 5.063033e-01 0.000000e+00
    vertex 2.357920e+00 4.947804e-01 0.000000e+00
  endloop
endfacet
facet normal 0.000000e+00 0.000000e+00 -1.000000e+00
  outer loop
    vertex 2.359030e+00 4.598363e-01 0.000000e+00
    vertex 2.353506e+00 5.176861e-01 0.000000e+00
    vertex 2.356077e+00 5.063033e-01 0.000000e+00
  endloop
endfacet
facet normal 0.000000e+00 0.000000e+00 -1.000000e+00
  outer loop
    vertex 2.359030e+00 4.598363e-01 0.000000e+00
    vertex 2.350218e+00 5.288830e-01 0.000000e+00
    vertex 2.353506e+00 5.176861e-01 0.000000e+00
  endloop
endfacet
facet normal 0.000000e+00 0.000000e+00 -1.000000e+00
  outer loop
    vertex 2.359030e+00 4.598363e-01 0.000000e+00
    vertex 2.346227e+00 5.398487e-01 0.000000e+00
    vertex 2.350218e+00 5.288830e-01 0.000000e+00
  endloop
endfacet
facet normal 0.000000e+00 0.000000e+00 -1.000000e+00
  outer loop
    vertex 2.359030e+00 4.598363e-01 0.000000e+00
    vertex 2.341548e+00 5.505393e-01 0.000000e+00
    vertex 2.346227e+00 5.398487e-01 0.000000e+00
  endloop
endfacet
facet normal 0.000000e+00 0.000000e+00 -1.000000e+00
  outer loop
    vertex 2.359030e+00 4.598363e-01 0.000000e+00
    vertex 2.336201e+00 5.609116e-01 0.000000e+00
    vertex 2.341548e+00 5.505393e-01 0.000000e+00
  endloop
endfacet
facet normal 0.000000e+00 0.000000e+00 -1.000000e+00
  outer loop
    vertex 2.359030e+00 4.598363e-01 0.000000e+00
    vertex 2.330207e+00 5.709238e-01 0.000000e+00
    vertex 2.336201e+00 5.609116e-01 0.000000e+00
  endloop
endfacet
facet normal 0.000000e+00 0.000000e+00 -1.000000e+00
  outer loop
    vertex 2.359030e+00 4.598363e-01 0.000000e+00
    vertex 2.323589e+00 5.805358e-01 0.000000e+00
    vertex 2.330207e+00 5.709238e-01 0.000000e+00
  endloop
endfacet
facet normal 0.000000e+00 0.000000e+00 -1.000000e+00
  outer loop
    vertex 2.359030e+00 4.598363e-01 0.000000e+00
    vertex 2.316376e+00 5.897086e-01 0.000000e+00
    vertex 2.323589e+00 5.805358e-01 0.000000e+00
  endloop
endfacet
facet normal 0.000000e+00 0.000000e+00 -1.000000e+00
  outer loop
    vertex 2.359030e+00 4.598363e-01 0.000000e+00
    vertex 2.308595e+00 5.984055e-01 0.000000e+00
    vertex 2.316376e+00 5.897086e-01 0.000000e+00
  endloop
endfacet
facet normal 0.000000e+00 0.000000e+00 -1.000000e+00
  outer loop
    vertex 2.359030e+00 4.598363e-01 0.000000e+00
    vertex 2.300278e+00 6.065914e-01 0.000000e+00
    vertex 2.308595e+00 5.984055e-01 0.000000e+00
  endloop
endfacet
facet normal 0.000000e+00 0.000000e+00 -1.000000e+00
  outer loop
    vertex 2.359030e+00 4.598363e-01 0.000000e+00
    vertex 2.291459e+00 6.142333e-01 0.000000e+00
    vertex 2.300278e+00 6.065914e-01 0.000000e+00
  endloop
endfacet
facet normal 0.000000e+00 0.000000e+00 -1.000000e+00
  outer loop
    vertex 2.359030e+00 4.598363e-01 0.000000e+00
    vertex 2.282172e+00 6.213005e-01 0.000000e+00
    vertex 2.291459e+00 6.142333e-01 0.000000e+00
  endloop
endfacet
facet normal 0.000000e+00 0.000000e+00 -1.000000e+00
  outer loop
    vertex 2.359030e+00 4.598363e-01 0.000000e+00
    vertex 2.272457e+00 6.277645e-01 0.000000e+00
    vertex 2.282172e+00 6.213005e-01 0.000000e+00
  endloop
endfacet
facet normal 0.000000e+00 0.000000e+00 -1.000000e+00
  outer loop
    vertex 2.359030e+00 4.598363e-01 0.000000e+00
    vertex 2.262351e+00 6.335993e-01 0.000000e+00
    vertex 2.272457e+00 6.277645e-01 0.000000e+00
  endloop
endfacet
facet normal 0.000000e+00 0.000000e+00 -1.000000e+00
  outer loop
    vertex 2.359030e+00 4.598363e-01 0.000000e+00
    vertex 2.251895e+00 6.387813e-01 0.000000e+00
    vertex 2.262351e+00 6.335993e-01 0.000000e+00
  endloop
endfacet
facet normal 0.000000e+00 0.000000e+00 -1.000000e+00
  outer loop
    vertex 2.359030e+00 4.598363e-01 0.000000e+00
    vertex 2.241131e+00 6.432898e-01 0.000000e+00
    vertex 2.251895e+00 6.387813e-01 0.000000e+00
  endloop
endfacet
facet normal 0.000000e+00 0.000000e+00 -1.000000e+00
  outer loop
    vertex 2.359030e+00 4.598363e-01 0.000000e+00
    vertex 2.230104e+00 6.471065e-01 0.000000e+00
    vertex 2.241131e+00 6.432898e-01 0.000000e+00
  endloop
endfacet
facet normal 0.000000e+00 0.000000e+00 -1.000000e+00
  outer loop
    vertex 2.359030e+00 4.598363e-01 0.000000e+00
    vertex 2.218856e+00 6.502161e-01 0.000000e+00
    vertex 2.230104e+00 6.471065e-01 0.000000e+00
  endloop
endfacet
facet normal 0.000000e+00 0.000000e+00 -1.000000e+00
  outer loop
    vertex 2.359030e+00 4.598363e-01 0.000000e+00
    vertex 2.207434e+00 6.526061e-01 0.000000e+00
    vertex 2.218856e+00 6.502161e-01 0.000000e+00
  endloop
endfacet
facet normal 0.000000e+00 0.000000e+00 -1.000000e+00
  outer loop
    vertex 2.359030e+00 4.598363e-01 0.000000e+00
    vertex 2.195883e+00 6.542669e-01 0.000000e+00
    vertex 2.207434e+00 6.526061e-01 0.000000e+00
  endloop
endfacet
facet normal 0.000000e+00 0.000000e+00 -1.000000e+00
  outer loop
    vertex 2.359030e+00 4.598363e-01 0.000000e+00
    vertex 2.184250e+00 6.551917e-01 0.000000e+00
    vertex 2.195883e+00 6.542669e-01 0.000000e+00
  endloop
endfacet
facet normal 0.000000e+00 0.000000e+00 -1.000000e+00
  outer loop
    vertex 2.359030e+00 4.598363e-01 0.000000e+00
    vertex 2.172582e+00 6.553769e-01 0.000000e+00
    vertex 2.184250e+00 6.551917e-01 0.000000e+00
  endloop
endfacet
facet normal 0.000000e+00 0.000000e+00 -1.000000e+00
  outer loop
    vertex 2.359030e+00 4.598363e-01 0.000000e+00
    vertex 2.160926e+00 6.548216e-01 0.000000e+00
    vertex 2.172582e+00 6.553769e-01 0.000000e+00
  endloop
endfacet
facet normal 0.000000e+00 0.000000e+00 -1.000000e+00
  outer loop
    vertex 2.359030e+00 4.598363e-01 0.000000e+00
    vertex 2.149328e+00 6.535282e-01 0.000000e+00
    vertex 2.160926e+00 6.548216e-01 0.000000e+00
  endloop
endfacet
facet normal 0.000000e+00 0.000000e+00 -1.000000e+00
  outer loop
    vertex 2.359030e+00 4.598363e-01 0.000000e+00
    vertex 2.137836e+00 6.515018e-01 0.000000e+00
    vertex 2.149328e+00 6.535282e-01 0.000000e+00
  endloop
endfacet
facet normal 0.000000e+00 0.000000e+00 -1.000000e+00
  outer loop
    vertex 2.359030e+00 4.598363e-01 0.000000e+00
    vertex 2.126495e+00 6.487506e-01 0.000000e+00
    vertex 2.137836e+00 6.515018e-01 0.000000e+00
  endloop
endfacet
facet normal 0.000000e+00 0.000000e+00 -1.000000e+00
  outer loop
    vertex 2.359030e+00 4.598363e-01 0.000000e+00
    vertex 2.115352e+00 6.452857e-01 0.000000e+00
    vertex 2.126495e+00 6.487506e-01 0.000000e+00
  endloop
endfacet
facet normal 0.000000e+00 0.000000e+00 -1.000000e+00
  outer loop
    vertex 2.359030e+00 4.598363e-01 0.000000e+00
    vertex 2.104451e+00 6.411210e-01 0.000000e+00
    vertex 2.115352e+00 6.452857e-01 0.000000e+00
  endloop
endfacet
facet normal 0.000000e+00 0.000000e+00 -1.000000e+00
  outer loop
    vertex 2.359030e+00 4.598363e-01 0.000000e+00
    vertex 2.093836e+00 6.362733e-01 0.000000e+00
    vertex 2.104451e+00 6.411210e-01 0.000000e+00
  endloop
endfacet
facet normal 0.000000e+00 0.000000e+00 -1.000000e+00
  outer loop
    vertex 2.359030e+00 4.598363e-01 0.000000e+00
    vertex 2.083550e+00 6.307621e-01 0.000000e+00
    vertex 2.093836e+00 6.362733e-01 0.000000e+00
  endloop
endfacet
facet normal 0.000000e+00 0.000000e+00 -1.000000e+00
  outer loop
    vertex 2.359030e+00 4.598363e-01 0.000000e+00
    vertex 2.073634e+00 6.246096e-01 0.000000e+00
    vertex 2.083550e+00 6.307621e-01 0.000000e+00
  endloop
endfacet
facet normal 0.000000e+00 0.000000e+00 -1.000000e+00
  outer loop
    vertex 2.359030e+00 4.598363e-01 0.000000e+00
    vertex 2.064128e+00 6.178406e-01 0.000000e+00
    vertex 2.073634e+00 6.246096e-01 0.000000e+00
  endloop
endfacet
facet normal 0.000000e+00 0.000000e+00 -1.000000e+00
  outer loop
    vertex 2.359030e+00 4.598363e-01 0.000000e+00
    vertex 2.055071e+00 6.104823e-01 0.000000e+00
    vertex 2.064128e+00 6.178406e-01 0.000000e+00
  endloop
endfacet
facet normal 0.000000e+00 0.000000e+00 -1.000000e+00
  outer loop
    vertex 2.359030e+00 4.598363e-01 0.000000e+00
    vertex 2.046499e+00 6.025645e-01 0.000000e+00
    vertex 2.055071e+00 6.104823e-01 0.000000e+00
  endloop
endfacet
facet normal 0.000000e+00 0.000000e+00 -1.000000e+00
  outer loop
    vertex 2.359030e+00 4.598363e-01 0.000000e+00
    vertex 2.038446e+00 5.941188e-01 0.000000e+00
    vertex 2.046499e+00 6.025645e-01 0.000000e+00
  endloop
endfacet
facet normal 0.000000e+00 0.000000e+00 -1.000000e+00
  outer loop
    vertex 2.359030e+00 4.598363e-01 0.000000e+00
    vertex 2.030945e+00 5.851794e-01 0.000000e+00
    vertex 2.038446e+00 5.941188e-01 0.000000e+00
  endloop
endfacet
facet normal 0.000000e+00 0.000000e+00 -1.000000e+00
  outer loop
    vertex 2.359030e+00 4.598363e-01 0.000000e+00
    vertex 2.024026e+00 5.757823e-01 0.000000e+00
    vertex 2.030945e+00 5.851794e-01 0.000000e+00
  endloop
endfacet
facet normal 0.000000e+00 0.000000e+00 -1.000000e+00
  outer loop
    vertex 2.359030e+00 4.598363e-01 0.000000e+00
    vertex 2.017717e+00 5.659653e-01 0.000000e+00
    vertex 2.024026e+00 5.757823e-01 0.000000e+00
  endloop
endfacet
facet normal 0.000000e+00 0.000000e+00 -1.000000e+00
  outer loop
    vertex 2.359030e+00 4.598363e-01 0.000000e+00
    vertex 2.012043e+00 5.557679e-01 0.000000e+00
    vertex 2.017717e+00 5.659653e-01 0.000000e+00
  endloop
endfacet
facet normal 0.000000e+00 0.000000e+00 -1.000000e+00
  outer loop
    vertex 2.359030e+00 4.598363e-01 0.000000e+00
    vertex 2.007028e+00 5.452311e-01 0.000000e+00
    vertex 2.012043e+00 5.557679e-01 0.000000e+00
  endloop
endfacet
facet normal 0.000000e+00 0.000000e+00 -1.000000e+00
  outer loop
    vertex 2.359030e+00 4.598363e-01 0.000000e+00
    vertex 2.002691e+00 5.343975e-01 0.000000e+00
    vertex 2.007028e+00 5.452311e-01 0.000000e+00
  endloop
endfacet
facet normal 0.000000e+00 0.000000e+00 -1.000000e+00
  outer loop
    vertex 2.359030e+00 4.598363e-01 0.000000e+00
    vertex 1.999049e+00 5.233106e-01 0.000000e+00
    vertex 2.002691e+00 5.343975e-01 0.000000e+00
  endloop
endfacet
facet normal 0.000000e+00 0.000000e+00 -1.000000e+00
  outer loop
    vertex 2.359030e+00 4.598363e-01 0.000000e+00
    vertex 1.996118e+00 5.120151e-01 0.000000e+00
    vertex 1.999049e+00 5.233106e-01 0.000000e+00
  endloop
endfacet
facet normal 0.000000e+00 0.000000e+00 -1.000000e+00
  outer loop
    vertex 2.359030e+00 4.598363e-01 0.000000e+00
    vertex 1.993910e+00 5.005565e-01 0.000000e+00
    vertex 1.996118e+00 5.120151e-01 0.000000e+00
  endloop
endfacet
facet normal 0.000000e+00 0.000000e+00 -1.000000e+00
  outer loop
    vertex 2.359030e+00 4.598363e-01 0.000000e+00
    vertex 1.992433e+00 4.889808e-01 0.000000e+00
    vertex 1.993910e+00 5.005565e-01 0.000000e+00
  endloop
endfacet
facet normal 0.000000e+00 0.000000e+00 -1.000000e+00
  outer loop
    vertex 2.359030e+00 4.598363e-01 0.000000e+00
    vertex 1.991693e+00 4.773348e-01 0.000000e+00
    vertex 1.992433e+00 4.889808e-01 0.000000e+00
  endloop
endfacet
facet normal 0.000000e+00 0.000000e+00 -1.000000e+00
  outer loop
    vertex 2.359030e+00 4.598363e-01 0.000000e+00
    vertex 1.991693e+00 4.656652e-01 0.000000e+00
    vertex 1.991693e+00 4.773348e-01 0.000000e+00
  endloop
endfacet
facet normal -0.000000e+00 0.000000e+00 -1.000000e+00
  outer loop
    vertex 2.359030e+00 4.598363e-01 0.000000e+00
    vertex 1.992433e+00 4.540192e-01 0.000000e+00
    vertex 1.991693e+00 4.656652e-01 0.000000e+00
  endloop
endfacet
facet normal 0.000000e+00 0.000000e+00 -1.000000e+00
  outer loop
    vertex 2.359030e+00 4.598363e-01 0.000000e+00
    vertex 1.993910e+00 4.424435e-01 0.000000e+00
    vertex 1.992433e+00 4.540192e-01 0.000000e+00
  endloop
endfacet
facet normal 0.000000e+00 0.000000e+00 -1.000000e+00
  outer loop
    vertex 2.359030e+00 4.598363e-01 0.000000e+00
    vertex 1.996118e+00 4.309849e-01 0.000000e+00
    vertex 1.993910e+00 4.424435e-01 0.000000e+00
  endloop
endfacet
facet normal 0.000000e+00 0.000000e+00 -1.000000e+00
  outer loop
    vertex 2.359030e+00 4.598363e-01 0.000000e+00
    vertex 1.999049e+00 4.196894e-01 0.000000e+00
    vertex 1.996118e+00 4.309849e-01 0.000000e+00
  endloop
endfacet
facet normal 0.000000e+00 0.000000e+00 -1.000000e+00
  outer loop
    vertex 2.359030e+00 4.598363e-01 0.000000e+00
    vertex 2.002691e+00 4.086025e-01 0.000000e+00
    vertex 1.999049e+00 4.196894e-01 0.000000e+00
  endloop
endfacet
facet normal 0.000000e+00 0.000000e+00 -1.000000e+00
  outer loop
    vertex 2.359030e+00 4.598363e-01 0.000000e+00
    vertex 2.007028e+00 3.977689e-01 0.000000e+00
    vertex 2.002691e+00 4.086025e-01 0.000000e+00
  endloop
endfacet
facet normal 0.000000e+00 0.000000e+00 -1.000000e+00
  outer loop
    vertex 2.359030e+00 4.598363e-01 0.000000e+00
    vertex 2.012043e+00 3.872321e-01 0.000000e+00
    vertex 2.007028e+00 3.977689e-01 0.000000e+00
  endloop
endfacet
facet normal 0.000000e+00 0.000000e+00 -1.000000e+00
  outer loop
    vertex 2.359030e+00 4.598363e-01 0.000000e+00
    vertex 2.017717e+00 3.770347e-01 0.000000e+00
    vertex 2.012043e+00 3.872321e-01 0.000000e+00
  endloop
endfacet
facet normal 0.000000e+00 0.000000e+00 -1.000000e+00
  outer loop
    vertex 2.359030e+00 4.598363e-01 0.000000e+00
    vertex 2.024026e+00 3.672177e-01 0.000000e+00
    vertex 2.017717e+00 3.770347e-01 0.000000e+00
  endloop
endfacet
facet normal 0.000000e+00 0.000000e+00 -1.000000e+00
  outer loop
    vertex 2.359030e+00 4.598363e-01 0.000000e+00
    vertex 2.030945e+00 3.578206e-01 0.000000e+00
    vertex 2.024026e+00 3.672177e-01 0.000000e+00
  endloop
endfacet
facet normal 0.000000e+00 0.000000e+00 -1.000000e+00
  outer loop
    vertex 2.359030e+00 4.598363e-01 0.000000e+00
    vertex 2.038446e+00 3.488812e-01 0.000000e+00
    vertex 2.030945e+00 3.578206e-01 0.000000e+00
  endloop
endfacet
facet normal 0.000000e+00 0.000000e+00 -1.000000e+00
  outer loop
    vertex 2.359030e+00 4.598363e-01 0.000000e+00
    vertex 2.046499e+00 3.404355e-01 0.000000e+00
    vertex 2.038446e+00 3.488812e-01 0.000000e+00
  endloop
endfacet
facet normal 0.000000e+00 0.000000e+00 -1.000000e+00
  outer loop
    vertex 2.359030e+00 4.598363e-01 0.000000e+00
    vertex 2.055071e+00 3.325177e-01 0.000000e+00
    vertex 2.046499e+00 3.404355e-01 0.000000e+00
  endloop
endfacet
facet normal 0.000000e+00 0.000000e+00 -1.000000e+00
  outer loop
    vertex 2.359030e+00 4.598363e-01 0.000000e+00
    vertex 2.064128e+00 3.251594e-01 0.000000e+00
    vertex 2.055071e+00 3.325177e-01 0.000000e+00
  endloop
endfacet
facet normal 0.000000e+00 0.000000e+00 -1.000000e+00
  outer loop
    vertex 2.359030e+00 4.598363e-01 0.000000e+00
    vertex 2.073634e+00 3.183904e-01 0.000000e+00
    vertex 2.064128e+00 3.251594e-01 0.000000e+00
  endloop
endfacet
facet normal 0.000000e+00 0.000000e+00 -1.000000e+00
  outer loop
    vertex 2.359030e+00 4.598363e-01 0.000000e+00
    vertex 2.083550e+00 3.122379e-01 0.000000e+00
    vertex 2.073634e+00 3.183904e-01 0.000000e+00
  endloop
endfacet
facet normal 0.000000e+00 0.000000e+00 -1.000000e+00
  outer loop
    vertex 2.359030e+00 4.598363e-01 0.000000e+00
    vertex 2.093836e+00 3.067267e-01 0.000000e+00
    vertex 2.083550e+00 3.122379e-01 0.000000e+00
  endloop
endfacet
facet normal 0.000000e+00 0.000000e+00 -1.000000e+00
  outer loop
    vertex 2.359030e+00 4.598363e-01 0.000000e+00
    vertex 2.104451e+00 3.018790e-01 0.000000e+00
    vertex 2.093836e+00 3.067267e-01 0.000000e+00
  endloop
endfacet
facet normal 0.000000e+00 0.000000e+00 -1.000000e+00
  outer loop
    vertex 2.359030e+00 4.598363e-01 0.000000e+00
    vertex 2.115352e+00 2.977143e-01 0.000000e+00
    vertex 2.104451e+00 3.018790e-01 0.000000e+00
  endloop
endfacet
facet normal 0.000000e+00 0.000000e+00 -1.000000e+00
  outer loop
    vertex 2.359030e+00 4.598363e-01 0.000000e+00
    vertex 2.126495e+00 2.942494e-01 0.000000e+00
    vertex 2.115352e+00 2.977143e-01 0.000000e+00
  endloop
endfacet
facet normal 0.000000e+00 0.000000e+00 -1.000000e+00
  outer loop
    vertex 2.359030e+00 4.598363e-01 0.000000e+00
    vertex 2.137836e+00 2.914982e-01 0.000000e+00
    vertex 2.126495e+00 2.942494e-01 0.000000e+00
  endloop
endfacet
facet normal 0.000000e+00 0.000000e+00 -1.000000e+00
  outer loop
    vertex 2.359030e+00 4.598363e-01 0.000000e+00
    vertex 2.149328e+00 2.894718e-01 0.000000e+00
    vertex 2.137836e+00 2.914982e-01 0.000000e+00
  endloop
endfacet
facet normal 0.000000e+00 0.000000e+00 -1.000000e+00
  outer loop
    vertex 2.359030e+00 4.598363e-01 0.000000e+00
    vertex 2.160926e+00 2.881784e-01 0.000000e+00
    vertex 2.149328e+00 2.894718e-01 0.000000e+00
  endloop
endfacet
facet normal 0.000000e+00 0.000000e+00 -1.000000e+00
  outer loop
    vertex 2.359030e+00 4.598363e-01 0.000000e+00
    vertex 2.172582e+00 2.876231e-01 0.000000e+00
    vertex 2.160926e+00 2.881784e-01 0.000000e+00
  endloop
endfacet
facet normal 0.000000e+00 0.000000e+00 -1.000000e+00
  outer loop
    vertex 2.359030e+00 4.598363e-01 0.000000e+00
    vertex 2.184250e+00 2.878083e-01 0.000000e+00
    vertex 2.172582e+00 2.876231e-01 0.000000e+00
  endloop
endfacet
facet normal 0.000000e+00 0.000000e+00 -1.000000e+00
  outer loop
    vertex 2.359030e+00 4.598363e-01 0.000000e+00
    vertex 2.195883e+00 2.887331e-01 0.000000e+00
    vertex 2.184250e+00 2.878083e-01 0.000000e+00
  endloop
endfacet
facet normal 0.000000e+00 0.000000e+00 -1.000000e+00
  outer loop
    vertex 2.359030e+00 4.598363e-01 0.000000e+00
    vertex 2.207434e+00 2.903939e-01 0.000000e+00
    vertex 2.195883e+00 2.887331e-01 0.000000e+00
  endloop
endfacet
facet normal 0.000000e+00 0.000000e+00 -1.000000e+00
  outer loop
    vertex 2.359030e+00 4.598363e-01 0.000000e+00
    vertex 2.218856e+00 2.927839e-01 0.000000e+00
    vertex 2.207434e+00 2.903939e-01 0.000000e+00
  endloop
endfacet
facet normal 0.000000e+00 0.000000e+00 -1.000000e+00
  outer loop
    vertex 2.359030e+00 4.598363e-01 0.000000e+00
    vertex 2.230104e+00 2.958935e-01 0.000000e+00
    vertex 2.218856e+00 2.927839e-01 0.000000e+00
  endloop
endfacet
facet normal 0.000000e+00 0.000000e+00 -1.000000e+00
  outer loop
    vertex 2.359030e+00 4.598363e-01 0.000000e+00
    vertex 2.241131e+00 2.997102e-01 0.000000e+00
    vertex 2.230104e+00 2.958935e-01 0.000000e+00
  endloop
endfacet
facet normal 0.000000e+00 0.000000e+00 -1.000000e+00
  outer loop
    vertex 2.359030e+00 4.598363e-01 0.000000e+00
    vertex 2.251895e+00 3.042187e-01 0.000000e+00
    vertex 2.241131e+00 2.997102e-01 0.000000e+00
  endloop
endfacet
facet normal 0.000000e+00 0.000000e+00 -1.000000e+00
  outer loop
    vertex 2.359030e+00 4.598363e-01 0.000000e+00
    vertex 2.262351e+00 3.094007e-01 0.000000e+00
    vertex 2.251895e+00 3.042187e-01 0.000000e+00
  endloop
endfacet
facet normal 0.000000e+00 0.000000e+00 -1.000000e+00
  outer loop
    vertex 2.359030e+00 4.598363e-01 0.000000e+00
    vertex 2.272457e+00 3.152355e-01 0.000000e+00
    vertex 2.262351e+00 3.094007e-01 0.000000e+00
  endloop
endfacet
facet normal 0.000000e+00 0.000000e+00 -1.000000e+00
  outer loop
    vertex 2.359030e+00 4.598363e-01 0.000000e+00
    vertex 2.282172e+00 3.216995e-01 0.000000e+00
    vertex 2.272457e+00 3.152355e-01 0.000000e+00
  endloop
endfacet
facet normal 0.000000e+00 0.000000e+00 -1.000000e+00
  outer loop
    vertex 2.359030e+00 4.598363e-01 0.000000e+00
    vertex 2.291459e+00 3.287667e-01 0.000000e+00
    vertex 2.282172e+00 3.216995e-01 0.000000e+00
  endloop
endfacet
facet normal 0.000000e+00 0.000000e+00 -1.000000e+00
  outer loop
    vertex 2.359030e+00 4.598363e-01 0.000000e+00
    vertex 2.300278e+00 3.364086e-01 0.000000e+00
    vertex 2.291459e+00 3.287667e-01 0.000000e+00
  endloop
endfacet
facet normal 0.000000e+00 0.000000e+00 -1.000000e+00
  outer loop
    vertex 2.359030e+00 4.598363e-01 0.000000e+00
    vertex 2.308595e+00 3.445945e-01 0.000000e+00
    vertex 2.300278e+00 3.364086e-01 0.000000e+00
  endloop
endfacet
facet normal 0.000000e+00 0.000000e+00 -1.000000e+00
  outer loop
    vertex 2.359030e+00 4.598363e-01 0.000000e+00
    vertex 2.316376e+00 3.532914e-01 0.000000e+00
    vertex 2.308595e+00 3.445945e-01 0.000000e+00
  endloop
endfacet
facet normal 0.000000e+00 0.000000e+00 -1.000000e+00
  outer loop
    vertex 2.359030e+00 4.598363e-01 0.000000e+00
    vertex 2.323589e+00 3.624642e-01 0.000000e+00
    vertex 2.316376e+00 3.532914e-01 0.000000e+00
  endloop
endfacet
facet normal 0.000000e+00 0.000000e+00 -1.000000e+00
  outer loop
    vertex 2.359030e+00 4.598363e-01 0.000000e+00
    vertex 2.330207e+00 3.720762e-01 0.000000e+00
    vertex 2.323589e+00 3.624642e-01 0.000000e+00
  endloop
endfacet
facet normal 0.000000e+00 0.000000e+00 -1.000000e+00
  outer loop
    vertex 2.359030e+00 4.598363e-01 0.000000e+00
    vertex 2.336201e+00 3.820884e-01 0.000000e+00
    vertex 2.330207e+00 3.720762e-01 0.000000e+00
  endloop
endfacet
facet normal 0.000000e+00 0.000000e+00 -1.000000e+00
  outer loop
    vertex 2.359030e+00 4.598363e-01 0.000000e+00
    vertex 2.341548e+00 3.924607e-01 0.000000e+00
    vertex 2.336201e+00 3.820884e-01 0.000000e+00
  endloop
endfacet
facet normal 0.000000e+00 0.000000e+00 -1.000000e+00
  outer loop
    vertex 2.359030e+00 4.598363e-01 0.000000e+00
    vertex 2.346227e+00 4.031513e-01 0.000000e+00
    vertex 2.341548e+00 3.924607e-01 0.000000e+00
  endloop
endfacet
facet normal 0.000000e+00 0.000000e+00 -1.000000e+00
  outer loop
    vertex 2.359030e+00 4.598363e-01 0.000000e+00
    vertex 2.350218e+00 4.141170e-01 0.000000e+00
    vertex 2.346227e+00 4.031513e-01 0.000000e+00
  endloop
endfacet
facet normal 0.000000e+00 0.000000e+00 -1.000000e+00
  outer loop
    vertex 2.359030e+00 4.598363e-01 0.000000e+00
    vertex 2.353506e+00 4.253139e-01 0.000000e+00
    vertex 2.350218e+00 4.141170e-01 0.000000e+00
  endloop
endfacet
facet normal 0.000000e+00 0.000000e+00 -1.000000e+00
  outer loop
    vertex 2.359030e+00 4.598363e-01 0.000000e+00
    vertex 2.356077e+00 4.366967e-01 0.000000e+00
    vertex 2.353506e+00 4.253139e-01 0.000000e+00
  endloop
endfacet
facet normal 0.000000e+00 0.000000e+00 -1.000000e+00
  outer loop
    vertex 2.356077e+00 4.366967e-01 0.000000e+00
    vertex 2.359030e+00 4.598363e-01 0.000000e+00
    vertex 2.357920e+00 4.482196e-01 0.000000e+00
  endloop
endfacet
endsolid hybmesh_2d_profile
